<?xml version="1.0" encoding="UTF-8" standalone="no"?>
<!DOCTYPE svg PUBLIC "-//W3C//DTD SVG 1.1//EN"
 "http://www.w3.org/Graphics/SVG/1.1/DTD/svg11.dtd">
<!-- Generated by graphviz version 2.43.0 (0)
 -->
<!-- Title: G Pages: 1 -->
<svg width="1667pt" height="1603pt"
 viewBox="0.00 0.00 1667.00 1602.87" xmlns="http://www.w3.org/2000/svg" xmlns:xlink="http://www.w3.org/1999/xlink">
<g id="graph0" class="graph" transform="scale(1 1) rotate(0) translate(4 1598.87)">
<title>G</title>
<polygon fill="white" stroke="transparent" points="-4,4 -4,-1598.87 1663,-1598.87 1663,4 -4,4"/>
<text text-anchor="middle" x="124" y="-1566.87" font-family="Helvetica,Arial,sans-serif" font-size="30.00">Map of AGI doom</text>
<g id="clust7" class="cluster">
<title>cluster_aligned</title>
<polygon fill="none" stroke="black" stroke-dasharray="5,2" points="740,-185 740,-650 1219,-650 1219,-185 740,-185"/>
<text text-anchor="middle" x="1157.5" y="-630" font-family="Helvetica,Arial,sans-serif" font-size="20.00">Aligned AGI</text>
</g>
<g id="clust8" class="cluster">
<title>cluster_misaligned</title>
<polygon fill="none" stroke="black" stroke-dasharray="5,2" points="305,-8 305,-650 732,-650 732,-8 305,-8"/>
<text text-anchor="middle" x="381" y="-630" font-family="Helvetica,Arial,sans-serif" font-size="20.00">Misaligned AGI</text>
</g>
<g id="clust15" class="cluster">
<title>cluster_legend</title>
<polygon fill="none" stroke="black" stroke-dasharray="1,5" points="1261,-1019 1261,-1545.87 1651,-1545.87 1651,-1019 1261,-1019"/>
<text text-anchor="middle" x="1581" y="-1525.87" font-family="Helvetica,Arial,sans-serif" font-size="20.00">Nodes legend</text>
</g>
<!-- can_agi_exist -->
<g id="node1" class="node start&#45;node">
<title>can_agi_exist</title>
<ellipse fill="#bafffc" stroke="transparent" stroke-width="3" cx="811" cy="-1431.87" rx="158.28" ry="26.74"/>
<text text-anchor="middle" x="811" y="-1435.67" font-family="Helvetica,Arial,sans-serif" font-size="14.00">Can superhuman</text>
<text text-anchor="middle" x="811" y="-1420.67" font-family="Helvetica,Arial,sans-serif" font-size="14.00">Artifical General Intelligence exist?</text>
</g>
<!-- no_ai_this_century -->
<g id="node9" class="node end&#45;node">
<title>no_ai_this_century</title>
<polygon fill="lightgray" stroke="transparent" stroke-width="3" points="1102,-1091 968,-1091 968,-1055 1102,-1055 1102,-1091"/>
<text text-anchor="middle" x="1035" y="-1069.3" font-family="Helvetica,Arial,sans-serif" font-size="14.00">No AGI this century</text>
</g>
<!-- can_agi_exist&#45;&gt;no_ai_this_century -->
<g id="edge2" class="edge">
<title>can_agi_exist:c&#45;&gt;no_ai_this_century:c</title>
<path fill="none" stroke="black" d="M891.92,-1408.72C965.21,-1384.84 1071.6,-1340.08 1138,-1267 1185.23,-1215.02 1190.04,-1152.64 1135,-1109 1127.91,-1103.38 1119.85,-1098.62 1111.45,-1094.61"/>
<polygon fill="black" stroke="black" points="1112.81,-1091.38 1102.25,-1090.54 1109.98,-1097.79 1112.81,-1091.38"/>
<text text-anchor="start" x="898.07" y="-1384.26" font-family="Helvetica,Arial,sans-serif" font-size="14.00">no; 1</text>
</g>
<!-- can_agi_exist_this_century -->
<g id="node17" class="node">
<title>can_agi_exist_this_century</title>
<polygon fill="none" stroke="#d9d9d9" stroke-width="3" points="870.5,-1354 751.5,-1354 751.5,-1318 870.5,-1318 870.5,-1354"/>
<text text-anchor="middle" x="811" y="-1332.3" font-family="Helvetica,Arial,sans-serif" font-size="14.00">...in this century?</text>
</g>
<!-- can_agi_exist&#45;&gt;can_agi_exist_this_century -->
<g id="edge1" class="edge">
<title>can_agi_exist&#45;&gt;can_agi_exist_this_century</title>
<path fill="none" stroke="black" stroke-width="4" d="M811,-1404.97C811,-1392.34 811,-1377.14 811,-1364.32"/>
<polygon fill="black" stroke="black" stroke-width="4" points="814.5,-1364.22 811,-1354.22 807.5,-1364.22 814.5,-1364.22"/>
<text text-anchor="start" x="811" y="-1375.8" font-family="Helvetica,Arial,sans-serif" font-size="14.00"> yes; 99</text>
</g>
<!-- ai_this_century -->
<g id="node2" class="node">
<title>ai_this_century</title>
<polygon fill="yellow" stroke="transparent" stroke-width="3" points="867.5,-1091 754.5,-1091 754.5,-1055 867.5,-1055 867.5,-1091"/>
<text text-anchor="middle" x="811" y="-1069.3" font-family="Helvetica,Arial,sans-serif" font-size="14.00">AGI this century</text>
</g>
<!-- Is AGI transformative? -->
<g id="node25" class="node">
<title>Is AGI transformative?</title>
<polygon fill="none" stroke="#d9d9d9" stroke-width="3" points="887,-992 735,-992 735,-956 887,-956 887,-992"/>
<text text-anchor="middle" x="811" y="-970.3" font-family="Helvetica,Arial,sans-serif" font-size="14.00">Is AGI transformative?</text>
</g>
<!-- ai_this_century&#45;&gt;Is AGI transformative? -->
<g id="edge13" class="edge">
<title>ai_this_century&#45;&gt;Is AGI transformative?</title>
<path fill="none" stroke="black" stroke-width="2" d="M811,-1054.66C811,-1040.18 811,-1019.26 811,-1002.5"/>
<polygon fill="black" stroke="black" stroke-width="2" points="814.5,-1002.19 811,-992.19 807.5,-1002.19 814.5,-1002.19"/>
</g>
<!-- second_chance_for_ai -->
<g id="node3" class="node">
<title>second_chance_for_ai</title>
<polygon fill="#feb531" stroke="transparent" stroke-width="3" points="295,-229 93,-229 93,-193 295,-193 295,-229"/>
<text text-anchor="middle" x="194" y="-207.3" font-family="Helvetica,Arial,sans-serif" font-size="14.00">Second chance at building AGI</text>
</g>
<!-- can_we_agree_no_ai -->
<g id="node18" class="node">
<title>can_we_agree_no_ai</title>
<polygon fill="none" stroke="#d9d9d9" stroke-width="3" points="905,-1267 717,-1267 717,-1231 905,-1231 905,-1267"/>
<text text-anchor="middle" x="811" y="-1245.3" font-family="Helvetica,Arial,sans-serif" font-size="14.00">Can we agree not to build it?</text>
</g>
<!-- second_chance_for_ai&#45;&gt;can_we_agree_no_ai -->
<g id="edge47" class="edge">
<title>second_chance_for_ai&#45;&gt;can_we_agree_no_ai:w</title>
<path fill="none" stroke="black" stroke-dasharray="5,2" d="M92.74,-220.97C45.7,-231.3 0,-253.14 0,-299 0,-1162 0,-1162 0,-1162 0,-1239.4 593.14,-1248.45 705.88,-1248.97"/>
<polygon fill="black" stroke="black" points="705.99,-1252.47 716,-1249 706.01,-1245.47 705.99,-1252.47"/>
<text text-anchor="middle" x="217.66" y="-1238.11" font-family="Helvetica,Arial,sans-serif" font-size="14.00">Second chance at building AGI</text>
</g>
<!-- astro_suffering -->
<g id="node4" class="node end&#45;node">
<title>astro_suffering</title>
<polygon fill="#ff8f8f" stroke="transparent" stroke-width="3" points="690.5,-141 595.5,-141 595.5,-103 690.5,-103 690.5,-141"/>
<text text-anchor="middle" x="643" y="-125.8" font-family="Helvetica,Arial,sans-serif" font-size="14.00">Astronomical</text>
<text text-anchor="middle" x="643" y="-110.8" font-family="Helvetica,Arial,sans-serif" font-size="14.00">suffering</text>
</g>
<!-- Medium scale dystopia -->
<g id="node5" class="node end&#45;node">
<title>Medium scale dystopia</title>
<polygon fill="#ff8f8f" stroke="transparent" stroke-width="3" points="503.5,-52 348.5,-52 348.5,-16 503.5,-16 503.5,-52"/>
<text text-anchor="middle" x="426" y="-30.3" font-family="Helvetica,Arial,sans-serif" font-size="14.00">Medium scale dystopia</text>
</g>
<!-- ai_kills_humans -->
<g id="node6" class="node end&#45;node">
<title>ai_kills_humans</title>
<polygon fill="#ff8f8f" stroke="transparent" stroke-width="3" points="723.5,-230 604.5,-230 604.5,-192 723.5,-192 723.5,-230"/>
<text text-anchor="middle" x="664" y="-214.8" font-family="Helvetica,Arial,sans-serif" font-size="14.00">AGI&#45;initiated</text>
<text text-anchor="middle" x="664" y="-199.8" font-family="Helvetica,Arial,sans-serif" font-size="14.00">human extinction</text>
</g>
<!-- Shoot&#45;in&#45;foot\nhuman extinction -->
<g id="node7" class="node end&#45;node">
<title>Shoot&#45;in&#45;foot\nhuman extinction</title>
<polygon fill="#ff8f8f" stroke="transparent" stroke-width="3" points="1168.5,-319 1049.5,-319 1049.5,-281 1168.5,-281 1168.5,-319"/>
<text text-anchor="middle" x="1109" y="-303.8" font-family="Helvetica,Arial,sans-serif" font-size="14.00">Shoot&#45;in&#45;foot</text>
<text text-anchor="middle" x="1109" y="-288.8" font-family="Helvetica,Arial,sans-serif" font-size="14.00">human extinction</text>
</g>
<!-- Authoritarian dystopia -->
<g id="node8" class="node end&#45;node">
<title>Authoritarian dystopia</title>
<polygon fill="#ff8f8f" stroke="transparent" stroke-width="3" points="1017.5,-229 870.5,-229 870.5,-193 1017.5,-193 1017.5,-229"/>
<text text-anchor="middle" x="944" y="-207.3" font-family="Helvetica,Arial,sans-serif" font-size="14.00">Authoritarian dystopia</text>
</g>
<!-- business_as_usual -->
<g id="node10" class="node end&#45;node">
<title>business_as_usual</title>
<polygon fill="lightgray" stroke="transparent" stroke-width="3" points="1055.5,-904 930.5,-904 930.5,-868 1055.5,-868 1055.5,-904"/>
<text text-anchor="middle" x="993" y="-882.3" font-family="Helvetica,Arial,sans-serif" font-size="14.00">Business as usual</text>
</g>
<!-- AGI Utopia -->
<g id="node11" class="node end&#45;node">
<title>AGI Utopia</title>
<polygon fill="#94ff8f" stroke="transparent" stroke-width="3" points="852.5,-229 769.5,-229 769.5,-193 852.5,-193 852.5,-229"/>
<text text-anchor="middle" x="811" y="-207.3" font-family="Helvetica,Arial,sans-serif" font-size="14.00">AGI Utopia</text>
</g>
<!-- conflicting_ais -->
<g id="node12" class="node end&#45;node">
<title>conflicting_ais</title>
<polygon fill="#feb531" stroke="transparent" stroke-width="3" points="1200.5,-815 1087.5,-815 1087.5,-779 1200.5,-779 1200.5,-815"/>
<text text-anchor="middle" x="1144" y="-793.3" font-family="Helvetica,Arial,sans-serif" font-size="14.00">Conflicting AGIs</text>
</g>
<!-- created_inefectual_ai -->
<g id="node13" class="node end&#45;node">
<title>created_inefectual_ai</title>
<polygon fill="yellow" stroke="transparent" stroke-width="3" points="264,-406 124,-406 124,-370 264,-370 264,-406"/>
<text text-anchor="middle" x="194" y="-384.3" font-family="Helvetica,Arial,sans-serif" font-size="14.00">Inefectual AGI exists</text>
</g>
<!-- created_inefectual_ai&#45;&gt;second_chance_for_ai -->
<g id="edge45" class="edge">
<title>created_inefectual_ai:sw&#45;&gt;second_chance_for_ai</title>
<path fill="none" stroke="black" stroke-width="2" d="M124,-370C94.58,-340.58 75.75,-317.88 95,-281 105.59,-260.72 125.16,-245.18 144.12,-234.04"/>
<polygon fill="black" stroke="black" stroke-width="2" points="146.01,-236.99 153.04,-229.07 142.6,-230.87 146.01,-236.99"/>
</g>
<!-- humans_killed_harmfull_ai -->
<g id="node14" class="node end&#45;node">
<title>humans_killed_harmfull_ai</title>
<polygon fill="yellow" stroke="transparent" stroke-width="3" points="283.5,-318 104.5,-318 104.5,-282 283.5,-282 283.5,-318"/>
<text text-anchor="middle" x="194" y="-296.3" font-family="Helvetica,Arial,sans-serif" font-size="14.00">We destroyed harmfull AGI</text>
</g>
<!-- created_inefectual_ai&#45;&gt;humans_killed_harmfull_ai -->
<!-- humans_killed_harmfull_ai&#45;&gt;second_chance_for_ai -->
<g id="edge46" class="edge">
<title>humans_killed_harmfull_ai:s&#45;&gt;second_chance_for_ai:n</title>
<path fill="none" stroke="black" stroke-width="2" d="M194,-281C194,-262.23 194,-255.12 194,-240.35"/>
<polygon fill="black" stroke="black" stroke-width="2" points="197.5,-240 194,-230 190.5,-240 197.5,-240"/>
</g>
<!-- offed_misaligned_ai -->
<g id="node15" class="node end&#45;node">
<title>offed_misaligned_ai</title>
<polygon fill="yellow" stroke="transparent" stroke-width="3" points="281,-494 107,-494 107,-458 281,-458 281,-494"/>
<text text-anchor="middle" x="194" y="-472.3" font-family="Helvetica,Arial,sans-serif" font-size="14.00">Turned off misaligned AGI</text>
</g>
<!-- offed_misaligned_ai&#45;&gt;second_chance_for_ai -->
<g id="edge44" class="edge">
<title>offed_misaligned_ai:sw&#45;&gt;second_chance_for_ai:nw</title>
<path fill="none" stroke="black" stroke-width="2" d="M107,-457C38.04,-388.04 22.58,-307.37 85.78,-237.58"/>
<polygon fill="black" stroke="black" stroke-width="2" points="88.64,-239.66 93,-230 83.57,-234.83 88.64,-239.66"/>
</g>
<!-- offed_misaligned_ai&#45;&gt;created_inefectual_ai -->
<!-- will_ai_collaborate_with_ai -->
<g id="node16" class="node">
<title>will_ai_collaborate_with_ai</title>
<polygon fill="none" stroke="#d9d9d9" stroke-width="3" points="1214,-905 1074,-905 1074,-867 1214,-867 1214,-905"/>
<text text-anchor="middle" x="1144" y="-889.8" font-family="Helvetica,Arial,sans-serif" font-size="14.00">Will AGIs colaborate</text>
<text text-anchor="middle" x="1144" y="-874.8" font-family="Helvetica,Arial,sans-serif" font-size="14.00">with each other?</text>
</g>
<!-- will_ai_collaborate_with_ai&#45;&gt;conflicting_ais -->
<g id="edge19" class="edge">
<title>will_ai_collaborate_with_ai&#45;&gt;conflicting_ais</title>
<path fill="none" stroke="black" stroke-width="4" d="M1144,-866.97C1144,-854.96 1144,-838.93 1144,-825.36"/>
<polygon fill="black" stroke="black" stroke-width="4" points="1147.5,-825.12 1144,-815.12 1140.5,-825.12 1147.5,-825.12"/>
<text text-anchor="start" x="1144" y="-837.8" font-family="Helvetica,Arial,sans-serif" font-size="14.00"> no; 90</text>
</g>
<!-- is_alignment_problem_solved -->
<g id="node19" class="node">
<title>is_alignment_problem_solved</title>
<polygon fill="none" stroke="#d9d9d9" stroke-width="3" points="894.5,-816 727.5,-816 727.5,-778 894.5,-778 894.5,-816"/>
<text text-anchor="middle" x="811" y="-800.8" font-family="Helvetica,Arial,sans-serif" font-size="14.00">Have we solved</text>
<text text-anchor="middle" x="811" y="-785.8" font-family="Helvetica,Arial,sans-serif" font-size="14.00">AGI alignment in theory?</text>
</g>
<!-- will_ai_collaborate_with_ai&#45;&gt;is_alignment_problem_solved -->
<g id="edge18" class="edge">
<title>will_ai_collaborate_with_ai:sw&#45;&gt;is_alignment_problem_solved:e</title>
<path fill="none" stroke="black" d="M1074,-867C1016.07,-809.07 983.19,-797.87 905.25,-797.05"/>
<polygon fill="black" stroke="black" points="905.02,-793.55 895,-797 904.98,-800.55 905.02,-793.55"/>
<text text-anchor="start" x="1053" y="-837.8" font-family="Helvetica,Arial,sans-serif" font-size="14.00"> yes; 10</text>
</g>
<!-- can_agi_exist_this_century&#45;&gt;no_ai_this_century -->
<g id="edge4" class="edge">
<title>can_agi_exist_this_century:e&#45;&gt;no_ai_this_century</title>
<path fill="none" stroke="black" stroke-width="2" d="M872,-1336C926.85,-1336 1067.41,-1302.77 1109,-1267 1152.24,-1229.81 1155.64,-1196.24 1138,-1142 1131.25,-1121.24 1113.56,-1106.24 1094.71,-1095.69"/>
<polygon fill="black" stroke="black" stroke-width="2" points="1096.19,-1092.52 1085.71,-1091.01 1092.97,-1098.73 1096.19,-1092.52"/>
<text text-anchor="start" x="881.92" y="-1315.9" font-family="Helvetica,Arial,sans-serif" font-size="14.00"> no; 30</text>
</g>
<!-- can_agi_exist_this_century&#45;&gt;can_we_agree_no_ai -->
<g id="edge3" class="edge">
<title>can_agi_exist_this_century&#45;&gt;can_we_agree_no_ai</title>
<path fill="none" stroke="black" stroke-width="3" d="M811,-1317.8C811,-1306.16 811,-1290.55 811,-1277.24"/>
<polygon fill="black" stroke="black" stroke-width="3" points="814.5,-1277.18 811,-1267.18 807.5,-1277.18 814.5,-1277.18"/>
<text text-anchor="start" x="811" y="-1288.8" font-family="Helvetica,Arial,sans-serif" font-size="14.00"> yes; 70</text>
</g>
<!-- can_we_agree_no_ai&#45;&gt;ai_this_century -->
<g id="edge8" class="edge">
<title>can_we_agree_no_ai&#45;&gt;ai_this_century</title>
<path fill="none" stroke="black" stroke-width="4" d="M811,-1231C811,-1200.85 811,-1137.79 811,-1101.43"/>
<polygon fill="black" stroke="black" stroke-width="4" points="814.5,-1101.07 811,-1091.07 807.5,-1101.07 814.5,-1101.07"/>
<text text-anchor="start" x="811" y="-1157.3" font-family="Helvetica,Arial,sans-serif" font-size="14.00"> no; 85</text>
</g>
<!-- can_we_enforce_no_ai -->
<g id="node22" class="node">
<title>can_we_enforce_no_ai</title>
<polygon fill="none" stroke="#d9d9d9" stroke-width="3" points="1099.5,-1267 970.5,-1267 970.5,-1231 1099.5,-1231 1099.5,-1267"/>
<text text-anchor="middle" x="1035" y="-1245.3" font-family="Helvetica,Arial,sans-serif" font-size="14.00">Can we enforce it?</text>
</g>
<!-- can_we_agree_no_ai&#45;&gt;can_we_enforce_no_ai -->
<g id="edge7" class="edge">
<title>can_we_agree_no_ai&#45;&gt;can_we_enforce_no_ai</title>
<path fill="none" stroke="black" d="M905.02,-1249C923.44,-1249 942.52,-1249 960.2,-1249"/>
<polygon fill="black" stroke="black" points="960.44,-1252.5 970.44,-1249 960.44,-1245.5 960.44,-1252.5"/>
<text text-anchor="start" x="913.75" y="-1255.8" font-family="Helvetica,Arial,sans-serif" font-size="14.00"> yes; 15</text>
</g>
<!-- Is the AGI aligned? -->
<g id="node20" class="node">
<title>Is the AGI aligned?</title>
<polygon fill="none" stroke="#d9d9d9" stroke-width="3" points="876.5,-727 745.5,-727 745.5,-691 876.5,-691 876.5,-727"/>
<text text-anchor="middle" x="811" y="-705.3" font-family="Helvetica,Arial,sans-serif" font-size="14.00">Is the AGI aligned?</text>
</g>
<!-- is_alignment_problem_solved&#45;&gt;Is the AGI aligned? -->
<g id="edge5" class="edge">
<title>is_alignment_problem_solved:s&#45;&gt;Is the AGI aligned?:n</title>
<path fill="none" stroke="black" stroke-width="3" d="M811,-778C811,-759.23 811,-752.12 811,-737.35"/>
<polygon fill="black" stroke="black" stroke-width="3" points="814.5,-737 811,-727 807.5,-737 814.5,-737"/>
<text text-anchor="start" x="811" y="-748.8" font-family="Helvetica,Arial,sans-serif" font-size="14.00"> yes; 70</text>
</g>
<!-- can_we_detect_misaligned -->
<g id="node21" class="node">
<title>can_we_detect_misaligned</title>
<polygon fill="none" stroke="#d9d9d9" stroke-width="3" points="724,-582 530,-582 530,-546 724,-546 724,-582"/>
<text text-anchor="middle" x="627" y="-560.3" font-family="Helvetica,Arial,sans-serif" font-size="14.00">Can we know it&#39;s misaligned?</text>
</g>
<!-- is_alignment_problem_solved&#45;&gt;can_we_detect_misaligned -->
<g id="edge6" class="edge">
<title>is_alignment_problem_solved:w&#45;&gt;can_we_detect_misaligned:n</title>
<path fill="none" stroke="black" stroke-width="2" d="M727,-797C625.4,-797 626.79,-694.9 626.99,-593.16"/>
<polygon fill="black" stroke="black" stroke-width="2" points="630.49,-593 627,-583 623.49,-593 630.49,-593"/>
<text text-anchor="start" x="649.22" y="-812.69" font-family="Helvetica,Arial,sans-serif" font-size="14.00"> no; 30</text>
</g>
<!-- Is the AGI aligned?&#45;&gt;can_we_detect_misaligned -->
<g id="edge21" class="edge">
<title>Is the AGI aligned?:w&#45;&gt;can_we_detect_misaligned:c</title>
<path fill="none" stroke="black" stroke-width="2" d="M744,-709C684.19,-709 649.59,-633.24 635.09,-591.62"/>
<polygon fill="black" stroke="black" stroke-width="2" points="638.4,-590.46 631.92,-582.08 631.76,-592.68 638.4,-590.46"/>
<text text-anchor="start" x="676" y="-661.8" font-family="Helvetica,Arial,sans-serif" font-size="14.00"> no; 40</text>
</g>
<!-- Aligned to whom? -->
<g id="node27" class="node">
<title>Aligned to whom?</title>
<polygon fill="none" stroke="#d9d9d9" stroke-width="3" points="873.5,-582 748.5,-582 748.5,-546 873.5,-546 873.5,-582"/>
<text text-anchor="middle" x="811" y="-560.3" font-family="Helvetica,Arial,sans-serif" font-size="14.00">Aligned to whom?</text>
</g>
<!-- Is the AGI aligned?&#45;&gt;Aligned to whom? -->
<g id="edge20" class="edge">
<title>Is the AGI aligned?&#45;&gt;Aligned to whom?</title>
<path fill="none" stroke="black" stroke-width="3" d="M811,-690.75C811,-666.38 811,-621.61 811,-592.59"/>
<polygon fill="black" stroke="black" stroke-width="3" points="814.5,-592.31 811,-582.31 807.5,-592.31 814.5,-592.31"/>
<text text-anchor="start" x="811" y="-661.8" font-family="Helvetica,Arial,sans-serif" font-size="14.00"> yes; 60</text>
</g>
<!-- can_we_off_it -->
<g id="node31" class="node">
<title>can_we_off_it</title>
<polygon fill="none" stroke="#d9d9d9" stroke-width="3" points="508,-494 344,-494 344,-458 508,-458 508,-494"/>
<text text-anchor="middle" x="426" y="-472.3" font-family="Helvetica,Arial,sans-serif" font-size="14.00">Can we easily turn it off?</text>
</g>
<!-- can_we_detect_misaligned&#45;&gt;can_we_off_it -->
<g id="edge30" class="edge">
<title>can_we_detect_misaligned:w&#45;&gt;can_we_off_it:n</title>
<path fill="none" stroke="black" stroke-width="2" d="M529,-564C477.45,-564 432.2,-551.83 426.59,-505.15"/>
<polygon fill="black" stroke="black" stroke-width="2" points="430.07,-504.78 426,-495 423.08,-505.19 430.07,-504.78"/>
<text text-anchor="start" x="434" y="-516.8" font-family="Helvetica,Arial,sans-serif" font-size="14.00"> yes; 30</text>
</g>
<!-- ai_harms_humans -->
<g id="node32" class="node">
<title>ai_harms_humans</title>
<polygon fill="none" stroke="#d9d9d9" stroke-width="3" points="484,-406 368,-406 368,-370 484,-370 484,-406"/>
<text text-anchor="middle" x="426" y="-384.3" font-family="Helvetica,Arial,sans-serif" font-size="14.00">Is it harming us?</text>
</g>
<!-- can_we_detect_misaligned&#45;&gt;ai_harms_humans -->
<g id="edge31" class="edge">
<title>can_we_detect_misaligned&#45;&gt;ai_harms_humans:e</title>
<path fill="none" stroke="black" stroke-width="3" d="M622.19,-545.9C609.22,-503.76 569.42,-397.66 495.21,-388.62"/>
<polygon fill="black" stroke="black" stroke-width="3" points="495.19,-385.11 485,-388 494.77,-392.1 495.19,-385.11"/>
<text text-anchor="start" x="603" y="-472.3" font-family="Helvetica,Arial,sans-serif" font-size="14.00"> no; 70</text>
</g>
<!-- can_we_enforce_no_ai&#45;&gt;no_ai_this_century -->
<g id="edge9" class="edge">
<title>can_we_enforce_no_ai:se&#45;&gt;no_ai_this_century</title>
<path fill="none" stroke="black" d="M1100,-1231C1128.67,-1202.33 1137.56,-1178.54 1120,-1142 1110.94,-1123.14 1093.82,-1107.88 1077.3,-1096.63"/>
<polygon fill="black" stroke="black" points="1079.07,-1093.6 1068.77,-1091.11 1075.27,-1099.48 1079.07,-1093.6"/>
<text text-anchor="start" x="1087.88" y="-1203.57" font-family="Helvetica,Arial,sans-serif" font-size="14.00"> yes; 1</text>
</g>
<!-- Will there be someone\nwilling to build it? -->
<g id="node23" class="node">
<title>Will there be someone\nwilling to build it?</title>
<polygon fill="none" stroke="#d9d9d9" stroke-width="3" points="1111,-1180 959,-1180 959,-1142 1111,-1142 1111,-1180"/>
<text text-anchor="middle" x="1035" y="-1164.8" font-family="Helvetica,Arial,sans-serif" font-size="14.00">Will there be someone</text>
<text text-anchor="middle" x="1035" y="-1149.8" font-family="Helvetica,Arial,sans-serif" font-size="14.00">willing to build it?</text>
</g>
<!-- can_we_enforce_no_ai&#45;&gt;Will there be someone\nwilling to build it? -->
<g id="edge10" class="edge">
<title>can_we_enforce_no_ai&#45;&gt;Will there be someone\nwilling to build it?</title>
<path fill="none" stroke="black" stroke-width="4" d="M1035,-1230.6C1035,-1219.06 1035,-1203.65 1035,-1190.36"/>
<polygon fill="black" stroke="black" stroke-width="4" points="1038.5,-1190.27 1035,-1180.27 1031.5,-1190.27 1038.5,-1190.27"/>
<text text-anchor="start" x="1035" y="-1201.8" font-family="Helvetica,Arial,sans-serif" font-size="14.00"> no; 99</text>
</g>
<!-- Will there be someone\nwilling to build it?&#45;&gt;ai_this_century -->
<g id="edge11" class="edge">
<title>Will there be someone\nwilling to build it?:sw&#45;&gt;ai_this_century:c</title>
<path fill="none" stroke="black" stroke-width="4" d="M959,-1142C936.55,-1119.55 905.33,-1103.72 877.35,-1093.01"/>
<polygon fill="black" stroke="black" stroke-width="4" points="878.2,-1089.59 867.61,-1089.43 875.79,-1096.16 878.2,-1089.59"/>
<text text-anchor="start" x="935" y="-1112.8" font-family="Helvetica,Arial,sans-serif" font-size="14.00"> yes; 95</text>
</g>
<!-- Will there be someone\nwilling to build it?&#45;&gt;no_ai_this_century -->
<g id="edge12" class="edge">
<title>Will there be someone\nwilling to build it?&#45;&gt;no_ai_this_century</title>
<path fill="none" stroke="black" d="M1035,-1141.76C1035,-1129.93 1035,-1114.32 1035,-1101.05"/>
<polygon fill="black" stroke="black" points="1038.5,-1101.04 1035,-1091.04 1031.5,-1101.04 1038.5,-1101.04"/>
<text text-anchor="start" x="1035" y="-1112.8" font-family="Helvetica,Arial,sans-serif" font-size="14.00"> no; 5</text>
</g>
<!-- Is AI transformative? -->
<g id="node24" class="node">
<title>Is AI transformative?</title>
<polygon fill="none" stroke="#d9d9d9" stroke-width="3" points="1372,-904 1232,-904 1232,-868 1372,-868 1372,-904"/>
<text text-anchor="middle" x="1302" y="-882.3" font-family="Helvetica,Arial,sans-serif" font-size="14.00">Is AI transformative?</text>
</g>
<!-- Is AGI transformative?&#45;&gt;business_as_usual -->
<g id="edge15" class="edge">
<title>Is AGI transformative?:c&#45;&gt;business_as_usual:c</title>
<path fill="none" stroke="black" stroke-width="2" d="M847.39,-955.8C876.25,-942.17 916.74,-923.03 947.7,-908.4"/>
<polygon fill="black" stroke="black" stroke-width="2" points="949.43,-911.46 956.98,-904.02 946.44,-905.13 949.43,-911.46"/>
<text text-anchor="start" x="912" y="-926.8" font-family="Helvetica,Arial,sans-serif" font-size="14.00"> no; 1</text>
</g>
<!-- first_ai_kills_other_ais -->
<g id="node26" class="node">
<title>first_ai_kills_other_ais</title>
<polygon fill="none" stroke="#d9d9d9" stroke-width="3" points="913,-905 709,-905 709,-867 913,-867 913,-905"/>
<text text-anchor="middle" x="811" y="-889.8" font-family="Helvetica,Arial,sans-serif" font-size="14.00">Will the first AGI</text>
<text text-anchor="middle" x="811" y="-874.8" font-family="Helvetica,Arial,sans-serif" font-size="14.00">prevent second AGI to appear?</text>
</g>
<!-- Is AGI transformative?&#45;&gt;first_ai_kills_other_ais -->
<g id="edge14" class="edge">
<title>Is AGI transformative?&#45;&gt;first_ai_kills_other_ais</title>
<path fill="none" stroke="black" stroke-width="3" d="M811,-955.6C811,-944.06 811,-928.65 811,-915.36"/>
<polygon fill="black" stroke="black" stroke-width="3" points="814.5,-915.27 811,-905.27 807.5,-915.27 814.5,-915.27"/>
<text text-anchor="start" x="811" y="-926.8" font-family="Helvetica,Arial,sans-serif" font-size="14.00"> yes; 99</text>
</g>
<!-- first_ai_kills_other_ais&#45;&gt;will_ai_collaborate_with_ai -->
<g id="edge17" class="edge">
<title>first_ai_kills_other_ais&#45;&gt;will_ai_collaborate_with_ai</title>
<path fill="none" stroke="black" d="M854.67,-905.01C903.91,-923.9 986.21,-947.81 1056,-931 1073.41,-926.81 1091.24,-918.56 1106.27,-910.25"/>
<polygon fill="black" stroke="black" points="1108.3,-913.12 1115.23,-905.11 1104.81,-907.05 1108.3,-913.12"/>
<text text-anchor="start" x="1014" y="-926.8" font-family="Helvetica,Arial,sans-serif" font-size="14.00"> no; 20</text>
</g>
<!-- first_ai_kills_other_ais&#45;&gt;is_alignment_problem_solved -->
<g id="edge16" class="edge">
<title>first_ai_kills_other_ais&#45;&gt;is_alignment_problem_solved</title>
<path fill="none" stroke="black" stroke-width="4" d="M811,-866.97C811,-855.19 811,-839.56 811,-826.16"/>
<polygon fill="black" stroke="black" stroke-width="4" points="814.5,-826 811,-816 807.5,-826 814.5,-826"/>
<text text-anchor="start" x="811" y="-837.8" font-family="Helvetica,Arial,sans-serif" font-size="14.00"> yes; 80</text>
</g>
<!-- Aligned to whom?&#45;&gt;AGI Utopia -->
<g id="edge22" class="edge">
<title>Aligned to whom?&#45;&gt;AGI Utopia</title>
<path fill="none" stroke="black" stroke-width="2" d="M811,-545.87C811,-528.51 811,-500.89 811,-477 811,-477 811,-477 811,-299 811,-279.05 811,-256.53 811,-239.4"/>
<polygon fill="black" stroke="black" stroke-width="2" points="814.5,-239 811,-229 807.5,-239 814.5,-239"/>
<text text-anchor="start" x="811" y="-384.3" font-family="Helvetica,Arial,sans-serif" font-size="14.00"> All humans; 40</text>
</g>
<!-- Are they thoughtful regarding\nunintended consequences? -->
<g id="node28" class="node">
<title>Are they thoughtful regarding\nunintended consequences?</title>
<polygon fill="none" stroke="#d9d9d9" stroke-width="3" points="1036.5,-495 845.5,-495 845.5,-457 1036.5,-457 1036.5,-495"/>
<text text-anchor="middle" x="941" y="-479.8" font-family="Helvetica,Arial,sans-serif" font-size="14.00">Are they thoughtful regarding</text>
<text text-anchor="middle" x="941" y="-464.8" font-family="Helvetica,Arial,sans-serif" font-size="14.00">unintended consequences?</text>
</g>
<!-- Aligned to whom?&#45;&gt;Are they thoughtful regarding\nunintended consequences? -->
<g id="edge23" class="edge">
<title>Aligned to whom?:c&#45;&gt;Are they thoughtful regarding\nunintended consequences?:n</title>
<path fill="none" stroke="black" stroke-width="3" d="M873.72,-554.06C903.45,-546.31 933.83,-531.86 939.9,-505.02"/>
<polygon fill="black" stroke="black" stroke-width="3" points="943.39,-505.32 941,-495 936.43,-504.56 943.39,-505.32"/>
<text text-anchor="start" x="896.21" y="-549.16" font-family="Helvetica,Arial,sans-serif" font-size="14.00"> Some humans; 60</text>
</g>
<!-- Do they have good\nintentions for humanity? -->
<g id="node29" class="node">
<title>Do they have good\nintentions for humanity?</title>
<polygon fill="none" stroke="#d9d9d9" stroke-width="3" points="1021.5,-319 860.5,-319 860.5,-281 1021.5,-281 1021.5,-319"/>
<text text-anchor="middle" x="941" y="-303.8" font-family="Helvetica,Arial,sans-serif" font-size="14.00">Do they have good</text>
<text text-anchor="middle" x="941" y="-288.8" font-family="Helvetica,Arial,sans-serif" font-size="14.00">intentions for humanity?</text>
</g>
<!-- Are they thoughtful regarding\nunintended consequences?&#45;&gt;Do they have good\nintentions for humanity? -->
<g id="edge24" class="edge">
<title>Are they thoughtful regarding\nunintended consequences?:s&#45;&gt;Do they have good\nintentions for humanity?:n</title>
<path fill="none" stroke="black" stroke-width="2" d="M941,-457C941,-399.26 941,-382.29 941,-329.33"/>
<polygon fill="black" stroke="black" stroke-width="2" points="944.5,-329 941,-319 937.5,-329 944.5,-329"/>
<text text-anchor="start" x="941" y="-384.3" font-family="Helvetica,Arial,sans-serif" font-size="14.00"> yes; 60</text>
</g>
<!-- Does the AGI protect its users? -->
<g id="node30" class="node">
<title>Does the AGI protect its users?</title>
<polygon fill="none" stroke="#d9d9d9" stroke-width="3" points="1211,-406 1007,-406 1007,-370 1211,-370 1211,-406"/>
<text text-anchor="middle" x="1109" y="-384.3" font-family="Helvetica,Arial,sans-serif" font-size="14.00">Does the AGI protect its users?</text>
</g>
<!-- Are they thoughtful regarding\nunintended consequences?&#45;&gt;Does the AGI protect its users? -->
<g id="edge25" class="edge">
<title>Are they thoughtful regarding\nunintended consequences?:e&#45;&gt;Does the AGI protect its users?:n</title>
<path fill="none" stroke="black" stroke-width="2" d="M1038,-476C1078.85,-476 1104.72,-454.17 1108.52,-416.04"/>
<polygon fill="black" stroke="black" stroke-width="2" points="1112.01,-416.16 1109,-406 1105.02,-415.82 1112.01,-416.16"/>
<text text-anchor="start" x="1106" y="-427.8" font-family="Helvetica,Arial,sans-serif" font-size="14.00"> no; 40</text>
</g>
<!-- Do they have good\nintentions for humanity?&#45;&gt;Authoritarian dystopia -->
<g id="edge29" class="edge">
<title>Do they have good\nintentions for humanity?&#45;&gt;Authoritarian dystopia</title>
<path fill="none" stroke="black" stroke-width="2" d="M941.62,-280.97C942.04,-268.96 942.59,-252.93 943.06,-239.36"/>
<polygon fill="black" stroke="black" stroke-width="2" points="946.56,-239.23 943.41,-229.12 939.57,-238.99 946.56,-239.23"/>
<text text-anchor="start" x="942" y="-251.8" font-family="Helvetica,Arial,sans-serif" font-size="14.00"> no; 60</text>
</g>
<!-- Do they have good\nintentions for humanity?&#45;&gt;AGI Utopia -->
<g id="edge28" class="edge">
<title>Do they have good\nintentions for humanity?&#45;&gt;AGI Utopia</title>
<path fill="none" stroke="black" stroke-width="2" d="M914.06,-280.97C894.06,-267.59 866.64,-249.23 845.1,-234.82"/>
<polygon fill="black" stroke="black" stroke-width="2" points="846.83,-231.77 836.57,-229.12 842.94,-237.59 846.83,-231.77"/>
<text text-anchor="start" x="883" y="-251.8" font-family="Helvetica,Arial,sans-serif" font-size="14.00"> yes; 40</text>
</g>
<!-- Does the AGI protect its users?&#45;&gt;Shoot&#45;in&#45;foot\nhuman extinction -->
<g id="edge26" class="edge">
<title>Does the AGI protect its users?&#45;&gt;Shoot&#45;in&#45;foot\nhuman extinction</title>
<path fill="none" stroke="black" stroke-width="2" d="M1109,-369.6C1109,-358.06 1109,-342.65 1109,-329.36"/>
<polygon fill="black" stroke="black" stroke-width="2" points="1112.5,-329.27 1109,-319.27 1105.5,-329.27 1112.5,-329.27"/>
<text text-anchor="start" x="1109" y="-340.8" font-family="Helvetica,Arial,sans-serif" font-size="14.00"> no; 50</text>
</g>
<!-- Does the AGI protect its users?&#45;&gt;Do they have good\nintentions for humanity? -->
<g id="edge27" class="edge">
<title>Does the AGI protect its users?&#45;&gt;Do they have good\nintentions for humanity?</title>
<path fill="none" stroke="black" stroke-width="2" d="M1075.41,-369.8C1049.6,-356.59 1013.71,-338.22 985.52,-323.79"/>
<polygon fill="black" stroke="black" stroke-width="2" points="986.77,-320.5 976.27,-319.06 983.58,-326.73 986.77,-320.5"/>
<text text-anchor="start" x="1040" y="-340.8" font-family="Helvetica,Arial,sans-serif" font-size="14.00"> yes; 50</text>
</g>
<!-- can_we_off_it&#45;&gt;offed_misaligned_ai -->
<g id="edge41" class="edge">
<title>can_we_off_it:w&#45;&gt;offed_misaligned_ai:c</title>
<path fill="none" stroke="black" d="M344,-476C327.03,-476 308.96,-476 291.48,-476"/>
<polygon fill="black" stroke="black" points="291.27,-472.5 281.27,-476 291.27,-479.5 291.27,-472.5"/>
<text text-anchor="start" x="289.69" y="-454.8" font-family="Helvetica,Arial,sans-serif" font-size="14.00"> yes; 20</text>
</g>
<!-- can_we_off_it&#45;&gt;ai_harms_humans -->
<g id="edge32" class="edge">
<title>can_we_off_it&#45;&gt;ai_harms_humans</title>
<path fill="none" stroke="black" stroke-width="4" d="M426,-457.6C426,-445.75 426,-429.82 426,-416.29"/>
<polygon fill="black" stroke="black" stroke-width="4" points="429.5,-416.08 426,-406.08 422.5,-416.08 429.5,-416.08"/>
<text text-anchor="start" x="426" y="-427.8" font-family="Helvetica,Arial,sans-serif" font-size="14.00"> no; 80</text>
</g>
<!-- ai_harms_humans&#45;&gt;created_inefectual_ai -->
<g id="edge42" class="edge">
<title>ai_harms_humans:w&#45;&gt;created_inefectual_ai:c</title>
<path fill="none" stroke="black" d="M368,-388C341.62,-388 312.97,-388 286.72,-388"/>
<polygon fill="black" stroke="black" points="286.41,-384.5 276.41,-388 286.41,-391.5 286.41,-384.5"/>
<text text-anchor="start" x="318.69" y="-366.8" font-family="Helvetica,Arial,sans-serif" font-size="14.00">no; 20</text>
</g>
<!-- humans_can_kill_ai -->
<g id="node33" class="node">
<title>humans_can_kill_ai</title>
<polygon fill="none" stroke="#d9d9d9" stroke-width="3" points="490,-318 362,-318 362,-282 490,-282 490,-318"/>
<text text-anchor="middle" x="426" y="-296.3" font-family="Helvetica,Arial,sans-serif" font-size="14.00">Can we destroy it?</text>
</g>
<!-- ai_harms_humans&#45;&gt;humans_can_kill_ai -->
<g id="edge33" class="edge">
<title>ai_harms_humans&#45;&gt;humans_can_kill_ai</title>
<path fill="none" stroke="black" stroke-width="4" d="M426,-369.6C426,-357.75 426,-341.82 426,-328.29"/>
<polygon fill="black" stroke="black" stroke-width="4" points="429.5,-328.08 426,-318.08 422.5,-328.08 429.5,-328.08"/>
<text text-anchor="start" x="426" y="-340.8" font-family="Helvetica,Arial,sans-serif" font-size="14.00"> yes; 80</text>
</g>
<!-- humans_can_kill_ai&#45;&gt;humans_killed_harmfull_ai -->
<g id="edge43" class="edge">
<title>humans_can_kill_ai:w&#45;&gt;humans_killed_harmfull_ai:c</title>
<path fill="none" stroke="black" stroke-width="2" d="M362,-300C329.18,-300 292.73,-300 262.28,-300"/>
<polygon fill="black" stroke="black" stroke-width="2" points="262.2,-296.5 252.2,-300 262.2,-303.5 262.2,-296.5"/>
<text text-anchor="start" x="313.19" y="-273.8" font-family="Helvetica,Arial,sans-serif" font-size="14.00">yes; 30</text>
</g>
<!-- wants_human_exctinction -->
<g id="node34" class="node">
<title>wants_human_exctinction</title>
<polygon fill="none" stroke="#d9d9d9" stroke-width="3" points="539,-229 313,-229 313,-193 539,-193 539,-229"/>
<text text-anchor="middle" x="426" y="-207.3" font-family="Helvetica,Arial,sans-serif" font-size="14.00">Does it benefit from our extinction?</text>
</g>
<!-- humans_can_kill_ai&#45;&gt;wants_human_exctinction -->
<g id="edge34" class="edge">
<title>humans_can_kill_ai&#45;&gt;wants_human_exctinction</title>
<path fill="none" stroke="black" stroke-width="3" d="M426,-281.81C426,-269.66 426,-253.11 426,-239.18"/>
<polygon fill="black" stroke="black" stroke-width="3" points="429.5,-239.15 426,-229.15 422.5,-239.15 429.5,-239.15"/>
<text text-anchor="start" x="426" y="-251.8" font-family="Helvetica,Arial,sans-serif" font-size="14.00"> no; 70</text>
</g>
<!-- wants_human_exctinction&#45;&gt;ai_kills_humans -->
<g id="edge35" class="edge">
<title>wants_human_exctinction&#45;&gt;ai_kills_humans</title>
<path fill="none" stroke="black" stroke-width="2" d="M539.08,-211C557.92,-211 576.97,-211 594.32,-211"/>
<polygon fill="black" stroke="black" stroke-width="2" points="594.32,-214.5 604.32,-211 594.32,-207.5 594.32,-214.5"/>
<text text-anchor="start" x="547.75" y="-217.8" font-family="Helvetica,Arial,sans-serif" font-size="14.00"> yes; 50</text>
</g>
<!-- wants_human_suffering -->
<g id="node35" class="node">
<title>wants_human_suffering</title>
<polygon fill="none" stroke="#d9d9d9" stroke-width="3" points="538,-140 314,-140 314,-104 538,-104 538,-140"/>
<text text-anchor="middle" x="426" y="-118.3" font-family="Helvetica,Arial,sans-serif" font-size="14.00">Does is benefit from our suffering?</text>
</g>
<!-- wants_human_exctinction&#45;&gt;wants_human_suffering -->
<g id="edge36" class="edge">
<title>wants_human_exctinction&#45;&gt;wants_human_suffering</title>
<path fill="none" stroke="black" stroke-width="2" d="M426,-192.81C426,-180.66 426,-164.11 426,-150.18"/>
<polygon fill="black" stroke="black" stroke-width="2" points="429.5,-150.15 426,-140.15 422.5,-150.15 429.5,-150.15"/>
<text text-anchor="start" x="426" y="-162.8" font-family="Helvetica,Arial,sans-serif" font-size="14.00"> no; 50</text>
</g>
<!-- wants_human_suffering&#45;&gt;astro_suffering -->
<g id="edge38" class="edge">
<title>wants_human_suffering&#45;&gt;astro_suffering</title>
<path fill="none" stroke="black" d="M538.31,-122C554.54,-122 570.65,-122 585.2,-122"/>
<polygon fill="black" stroke="black" points="585.49,-125.5 595.49,-122 585.49,-118.5 585.49,-125.5"/>
<text text-anchor="start" x="546.75" y="-128.8" font-family="Helvetica,Arial,sans-serif" font-size="14.00"> yes; 1</text>
</g>
<!-- wants_human_suffering&#45;&gt;Medium scale dystopia -->
<g id="edge37" class="edge">
<title>wants_human_suffering:s&#45;&gt;Medium scale dystopia:n</title>
<path fill="none" stroke="black" stroke-width="4" d="M426,-103C426,-84.23 426,-77.12 426,-62.35"/>
<polygon fill="black" stroke="black" stroke-width="4" points="429.5,-62 426,-52 422.5,-62 429.5,-62"/>
<text text-anchor="start" x="426" y="-73.8" font-family="Helvetica,Arial,sans-serif" font-size="14.00"> no; 99</text>
</g>
<!-- legend_start -->
<g id="node36" class="node">
<title>legend_start</title>
<ellipse fill="#bafffc" stroke="transparent" stroke-width="3" cx="1409" cy="-1431.87" rx="29.5" ry="18"/>
<text text-anchor="middle" x="1409" y="-1428.17" font-family="Helvetica,Arial,sans-serif" font-size="14.00">Start</text>
</g>
<!-- da -->
<g id="node37" class="node">
<title>da</title>
<polygon fill="transparent" stroke="lightgray" stroke-width="3" points="1455,-1354 1363,-1354 1363,-1318 1455,-1318 1455,-1354"/>
<text text-anchor="middle" x="1409" y="-1332.3" font-family="Helvetica,Arial,sans-serif" font-size="14.00">Bifurcation A</text>
</g>
<!-- legend_start&#45;&gt;da -->
<g id="edge48" class="edge">
<title>legend_start&#45;&gt;da</title>
<path fill="none" stroke="black" stroke-width="2" d="M1409,-1413.65C1409,-1399.89 1409,-1380.34 1409,-1364.43"/>
<polygon fill="black" stroke="black" stroke-width="2" points="1412.5,-1364.11 1409,-1354.11 1405.5,-1364.11 1412.5,-1364.11"/>
</g>
<!-- State -->
<g id="node39" class="node">
<title>State</title>
<polygon fill="yellow" stroke="transparent" stroke-width="3" points="1436,-1267 1382,-1267 1382,-1231 1436,-1231 1436,-1267"/>
<text text-anchor="middle" x="1409" y="-1245.3" font-family="Helvetica,Arial,sans-serif" font-size="14.00">State</text>
</g>
<!-- da&#45;&gt;State -->
<g id="edge49" class="edge">
<title>da&#45;&gt;State</title>
<path fill="none" stroke="black" stroke-width="2" d="M1409,-1317.8C1409,-1306.16 1409,-1290.55 1409,-1277.24"/>
<polygon fill="black" stroke="black" stroke-width="2" points="1412.5,-1277.18 1409,-1267.18 1405.5,-1277.18 1412.5,-1277.18"/>
</g>
<!-- Unchanged future -->
<g id="node40" class="node">
<title>Unchanged future</title>
<polygon fill="lightgray" stroke="transparent" stroke-width="3" points="1615,-1179 1491,-1179 1491,-1143 1615,-1143 1615,-1179"/>
<text text-anchor="middle" x="1553" y="-1157.3" font-family="Helvetica,Arial,sans-serif" font-size="14.00">Unchanged future</text>
</g>
<!-- da&#45;&gt;Unchanged future -->
<g id="edge51" class="edge">
<title>da:e&#45;&gt;Unchanged future:c</title>
<path fill="none" stroke="black" stroke-width="2" d="M1456,-1336C1522.4,-1336 1543.76,-1238.14 1550.29,-1189.2"/>
<polygon fill="black" stroke="black" stroke-width="2" points="1553.8,-1189.35 1551.53,-1179 1546.85,-1188.5 1553.8,-1189.35"/>
</g>
<!-- db -->
<g id="node38" class="node">
<title>db</title>
<polygon fill="transparent" stroke="lightgray" stroke-width="3" points="1455.5,-1179 1362.5,-1179 1362.5,-1143 1455.5,-1143 1455.5,-1179"/>
<text text-anchor="middle" x="1409" y="-1157.3" font-family="Helvetica,Arial,sans-serif" font-size="14.00">Bifurcation B</text>
</g>
<!-- db&#45;&gt;Unchanged future -->
<g id="edge52" class="edge">
<title>db&#45;&gt;Unchanged future</title>
<path fill="none" stroke="black" stroke-width="2" d="M1455.69,-1161C1463.98,-1161 1472.26,-1161 1480.55,-1161"/>
<polygon fill="black" stroke="black" stroke-width="2" points="1480.66,-1164.5 1490.66,-1161 1480.66,-1157.5 1480.66,-1164.5"/>
</g>
<!-- Good future -->
<g id="node41" class="node">
<title>Good future</title>
<polygon fill="#94ff8f" stroke="transparent" stroke-width="3" points="1386.5,-1091 1297.5,-1091 1297.5,-1055 1386.5,-1055 1386.5,-1091"/>
<text text-anchor="middle" x="1342" y="-1069.3" font-family="Helvetica,Arial,sans-serif" font-size="14.00">Good future</text>
</g>
<!-- db&#45;&gt;Good future -->
<g id="edge53" class="edge">
<title>db&#45;&gt;Good future</title>
<path fill="none" stroke="black" stroke-width="2" d="M1395.44,-1142.6C1385.75,-1130.16 1372.56,-1113.23 1361.71,-1099.3"/>
<polygon fill="black" stroke="black" stroke-width="2" points="1364.22,-1096.82 1355.31,-1091.08 1358.69,-1101.12 1364.22,-1096.82"/>
</g>
<!-- Uncertain future -->
<g id="node42" class="node">
<title>Uncertain future</title>
<polygon fill="#feb531" stroke="transparent" stroke-width="3" points="1517.5,-1091 1404.5,-1091 1404.5,-1055 1517.5,-1055 1517.5,-1091"/>
<text text-anchor="middle" x="1461" y="-1069.3" font-family="Helvetica,Arial,sans-serif" font-size="14.00">Uncertain future</text>
</g>
<!-- db&#45;&gt;Uncertain future -->
<g id="edge54" class="edge">
<title>db&#45;&gt;Uncertain future</title>
<path fill="none" stroke="black" stroke-width="2" d="M1419.52,-1142.6C1426.97,-1130.28 1437.09,-1113.55 1445.46,-1099.7"/>
<polygon fill="black" stroke="black" stroke-width="2" points="1448.49,-1101.45 1450.67,-1091.08 1442.5,-1097.83 1448.49,-1101.45"/>
</g>
<!-- Bad future -->
<g id="node43" class="node">
<title>Bad future</title>
<polygon fill="#ff8f8f" stroke="transparent" stroke-width="3" points="1614.5,-1091 1535.5,-1091 1535.5,-1055 1614.5,-1055 1614.5,-1091"/>
<text text-anchor="middle" x="1575" y="-1069.3" font-family="Helvetica,Arial,sans-serif" font-size="14.00">Bad future</text>
</g>
<!-- db&#45;&gt;Bad future -->
<g id="edge55" class="edge">
<title>db&#45;&gt;Bad future</title>
<path fill="none" stroke="black" stroke-width="2" d="M1442.19,-1142.8C1468.29,-1129.28 1504.81,-1110.36 1532.95,-1095.78"/>
<polygon fill="black" stroke="black" stroke-width="2" points="1534.88,-1098.73 1542.15,-1091.02 1531.66,-1092.51 1534.88,-1098.73"/>
</g>
<!-- State&#45;&gt;db -->
<g id="edge50" class="edge">
<title>State&#45;&gt;db</title>
<path fill="none" stroke="black" stroke-width="2" d="M1409,-1230.6C1409,-1218.75 1409,-1202.82 1409,-1189.29"/>
<polygon fill="black" stroke="black" stroke-width="2" points="1412.5,-1189.08 1409,-1179.08 1405.5,-1189.08 1412.5,-1189.08"/>
</g>
</g>
</svg>
